<svg width="204" height="32" viewBox="0 0 204 32" fill="none" xmlns="http://www.w3.org/2000/svg">
<path d="M8.67 26H0.9V24.86H2.22V8.09H0.9V6.95H8.67V15.83H13.17V6.95H20.94V8.09H19.62V24.86H20.94V26H13.17V17.48H8.67V26ZM42.8262 14.78V18.14C42.8262 19.76 42.6362 21.22 42.2562 22.52C42.0162 23.34 41.4662 24.18 40.6062 25.04C40.2262 25.42 39.4262 25.79 38.2062 26.15C37.2662 26.43 35.2762 26.52 32.2362 26.42C30.9162 26.38 30.0662 26.3 29.6862 26.18C29.3262 26.06 28.9162 25.91 28.4562 25.73C28.0162 25.53 27.6662 25.3 27.4062 25.04C27.1662 24.76 26.8962 24.41 26.5962 23.99C26.3162 23.57 26.1062 23.08 25.9662 22.52C25.6062 21.24 25.4262 19.78 25.4262 18.14V14.78C25.4262 13.18 25.6062 11.84 25.9662 10.76C26.3262 9.66 26.7362 8.84 27.1962 8.3C27.6562 7.74 28.3662 7.32 29.3262 7.04C30.2862 6.76 31.0862 6.6 31.7262 6.56C32.3662 6.52 33.1562 6.5 34.0962 6.5C35.0562 6.5 35.6962 6.51 36.0162 6.53C36.3362 6.53 36.7762 6.55 37.3362 6.59C37.9162 6.63 38.3562 6.7 38.6562 6.8C38.9562 6.9 39.3262 7.05 39.7662 7.25C40.2262 7.43 40.5762 7.66 40.8162 7.94C41.0762 8.2 41.3462 8.54 41.6262 8.96C41.9262 9.38 42.1462 9.86 42.2862 10.4C42.6462 11.66 42.8262 13.12 42.8262 14.78ZM36.3762 24.29V8.63H31.8762V24.29H36.3762ZM65.5997 21.14C65.5997 22.36 65.3097 23.39 64.7297 24.23C64.3897 24.75 63.6297 25.21 62.4497 25.61C61.8097 25.83 60.9997 25.95 60.0197 25.97C59.0597 25.99 58.1697 26 57.3497 26H47.3297V24.86H48.6497V8.09H47.3297V6.95H57.0497C59.6697 6.95 61.3697 7.08 62.1497 7.34C63.3297 7.74 64.0897 8.2 64.4297 8.72C65.0097 9.56 65.2997 10.59 65.2997 11.81C65.2997 14.27 63.8597 15.78 60.9797 16.34V16.58C64.0597 17.14 65.5997 18.66 65.5997 21.14ZM55.0997 8.63V15.65H59.1497V8.63H55.0997ZM59.1497 24.2V17.3H55.0997V24.2H59.1497ZM88.2286 21.14C88.2286 22.36 87.9386 23.39 87.3586 24.23C87.0186 24.75 86.2586 25.21 85.0786 25.61C84.4386 25.83 83.6286 25.95 82.6486 25.97C81.6886 25.99 80.7986 26 79.9786 26H69.9586V24.86H71.2786V8.09H69.9586V6.95H79.6786C82.2986 6.95 83.9986 7.08 84.7786 7.34C85.9586 7.74 86.7186 8.2 87.0586 8.72C87.6386 9.56 87.9286 10.59 87.9286 11.81C87.9286 14.27 86.4886 15.78 83.6086 16.34V16.58C86.6886 17.14 88.2286 18.66 88.2286 21.14ZM77.7286 8.63V15.65H81.7786V8.63H77.7286ZM81.7786 24.2V17.3H77.7286V24.2H81.7786ZM110.468 8.09H109.208L105.218 21.62V24.86H107.738V26H94.4475V24.86H96.9675V21.62L92.9775 8.09H91.6875V6.95H99.6675L102.128 17H103.838V6.95H110.468V8.09ZM141.48 6.95V13.19H137.97L137.22 9.05H135.51L136.17 14.09V24.86H138.69V26H127.2V24.86H129.72V14.09L130.38 9.05H128.67L127.92 13.37H124.41V6.95H141.48ZM154.893 8.09H153.573V24.86H154.893V26H145.803V24.86H147.123V8.09H145.803V6.95H154.893V8.09ZM159.959 8.09V6.95H171.179L172.829 14.36H173.399L175.469 6.95H183.509V8.09H182.189V24.86H183.509V26H175.289L178.619 8.75H177.389L172.619 26H168.719L164.849 8.75H163.619L166.049 26H159.959V24.86H161.279V8.09H159.959ZM188.3 26V24.86H189.62V8.09H188.3V6.95H203.48V13.37H199.97L198.74 8.75H196.07V15.83H201.8V17.48H196.07V24.2H198.74L199.97 19.58H203.48V26H188.3Z" fill="#25DC58"/>
</svg>
